#N canvas 0 0 1262 679 10;
#X text 177 277 creation arguments are OSC address;
#X text 179 238 set message to change OSC address;
#X text 164 48 1 Set IP Address : network address;
#X text 164 68 2 Set Ports (sending and listening);
#X text 164 87 3 Set OSC Addresses (routing osc data;
#X text 155 26 Key Settings;
#X floatatom 43 194 5 0 0 0 - - - 0;
#N canvas 1099 23 2560 1037 oscReceive 0;
#X obj 55 184 netreceive -u -b;
#X msg 78 143 listen 0;
#X text 152 143 stop listening;
#X text 64 58 packets from network;
#X text 173 177 UDP packets \, binary output, f 13;
#X obj 45 314 print;
#X obj 45 272 oscparse;
#X text 150 114 listen on port 8000;
#X obj 177 269 oscparse;
#X obj 177 293 list trim;
#X floatatom 140 380 5 0 0 0 - - - 0;
#X text 241 267 Parse the OSC message;
#X obj 177 319 route unity;
#X obj 139 357 route trigger;
#X obj 140 407 s osctrig;
#X msg 66 115 listen 8000;
#X obj 66 84 loadbang;
#X floatatom 244 382 5 0 0 0 - - - 0;
#X obj 243 359 route tempo;
#X obj 244 409 s osctempo;
#X floatatom 339 382 5 0 0 0 - - - 0;
#X obj 338 359 route playseq;
#X obj 339 409 s oscplayseq;
#X floatatom 437 382 5 0 0 0 - - - 0;
#X obj 436 359 route colwall;
#X obj 437 409 s oscwall;
#X obj 538 359 route walk;
#X floatatom 542 387 5 0 0 0 - - - 0;
#X obj 539 412 s oscwalk;
#X connect 0 0 6 0;
#X connect 0 0 8 0;
#X connect 1 0 0 0;
#X connect 6 0 5 0;
#X connect 8 0 9 0;
#X connect 9 0 12 0;
#X connect 10 0 14 0;
#X connect 12 0 13 0;
#X connect 12 0 18 0;
#X connect 12 0 21 0;
#X connect 12 0 24 0;
#X connect 12 0 26 0;
#X connect 13 0 10 0;
#X connect 15 0 0 0;
#X connect 16 0 15 0;
#X connect 17 0 19 0;
#X connect 18 0 17 0;
#X connect 20 0 22 0;
#X connect 21 0 20 0;
#X connect 23 0 25 0;
#X connect 24 0 23 0;
#X connect 26 0 27 0;
#X connect 27 0 28 0;
#X restore 47 142 pd oscReceive;
#X obj 47 36 tgl 15 0 empty empty empty 17 7 0 10 #fcfcfc #000000 #000000
0 1;
#X msg 47 61 \; pd dsp \$1;
#X obj 44 278 oscformat PD message;
#X msg 76 239 set PD message;
#N canvas 727 97 450 300 oscSend 0;
#X msg 158 207 disconnect;
#X obj 61 253 netsend -u -b;
#X obj 59 55 list prepend send;
#X obj 59 80 list trim;
#X msg 150 175 connect 127.0.0.1 8001;
#X obj 59 29 r oscOut;
#X text 301 163 send to port 8001;
#X msg 147 148 connect localhost 8001;
#X obj 147 108 loadbang;
#X connect 0 0 1 0;
#X connect 2 0 3 0;
#X connect 3 0 1 0;
#X connect 4 0 1 0;
#X connect 5 0 2 0;
#X connect 7 0 1 0;
#X connect 8 0 7 0;
#X restore 47 118 pd oscSend;
#X obj 44 313 s oscOut;
#X obj 2551 967 *~;
#X obj 2542 1012 dac~;
#X obj 2558 636 mtof;
#X obj 2557 595 + 0;
#X obj 2540 347 metro 4000;
#X obj 2542 314 tgl 15 0 empty empty empty 17 7 0 10 #fcfcfc #000000
#000000 0 1;
#X floatatom 2598 318 5 0 0 0 - - - 0;
#X obj 2521 383 f;
#X obj 2564 383 + 1;
#X obj 2542 448 select 0 1 2 3;
#X obj 2720 840 vline~;
#X floatatom 2704 533 5 0 0 0 - - - 0;
#X obj 2704 480 loadbang;
#X obj 2541 416 mod 4;
#X msg 2515 501 0;
#X obj 2507 836 phasor~;
#X floatatom 2505 777 5 0 0 0 - - - 0;
#X obj 2582 835 phasor~;
#X obj 2581 804 * -1;
#X obj 2550 894 +~;
#X obj 2548 927 -~ 1;
#X msg 2583 773 0;
#X msg 2631 773 0.5;
#X obj 2604 743 bng 15 250 50 0 empty empty empty 17 7 0 10 #fcfcfc
#000000 #000000;
#X obj 2603 718 loadbang;
#X obj 1193 910 r osctempo;
#X obj 2583 241 loadbang;
#X msg 2599 285 500;
#X obj 1000 874 r oscplayseq;
#X msg 2554 501 -5;
#X msg 2595 501 -3;
#X msg 2637 501 -1;
#X msg 2720 788 0.5 25 \, 0 100 75;
#X msg 2704 507 48;
#X text 428 832 Trigger noise burst when running into a wall;
#X text 2475 190 Sequence playback: tempo increases as more cubes are
collected.;
#X obj 1960 667 *~;
#X obj 1954 711 dac~;
#X obj 2027 586 vline~;
#X obj 1877 380 f;
#X obj 1917 379 + 1;
#X obj 1894 412 mod 2;
#X obj 1895 444 select 0 1;
#X msg 1897 480 0;
#X obj 1919 539 mtof;
#X obj 1918 587 phasor~;
#X obj 1917 514 + 45;
#X obj 1891 338 metro 500;
#X msg 1936 480 -10;
#X obj 1903 269 r oscwalk;
#X obj 1902 304 tgl 15 0 empty empty empty 17 7 0 10 #fcfcfc #000000
#000000 0 1;
#X obj 1063 1289 mtof;
#X obj 1062 1248 + 0;
#X obj 1045 1000 metro 4000;
#X obj 1047 967 tgl 15 0 empty empty empty 17 7 0 10 #fcfcfc #000000
#000000 0 1;
#X floatatom 1103 971 5 0 0 0 - - - 0;
#X obj 1026 1034 f;
#X obj 1069 1036 + 1;
#X floatatom 1216 1243 5 0 0 0 - - - 0;
#X obj 1216 1190 loadbang;
#X obj 1046 1069 mod 4;
#X msg 1020 1154 0;
#X obj 1088 894 loadbang;
#X msg 1104 938 500;
#X msg 1216 1217 48, f 5;
#X msg 1142 1154 5;
#X floatatom 817 1335 5 0 0 0 - - - 0;
#X obj 816 1371 osc~;
#X obj 817 1293 * 1;
#X floatatom 920 1331 5 0 0 0 - - - 0;
#X obj 919 1367 osc~;
#X floatatom 1232 1336 5 0 0 0 - - - 0;
#X floatatom 1330 1337 5 0 0 0 - - - 0;
#X obj 920 1289 * 2;
#X obj 1232 1294 * 3;
#X obj 1330 1295 * 4;
#X obj 1057 1599 dac~;
#X obj 1032 1434 vline~;
#X msg 1029 1365 0.5 200 \, 0 100 300;
#X msg 1059 1154 2;
#X msg 1100 1154 4;
#X obj 1047 1101 select 0 1 2 3;
#X obj 1340 1488 *~ 1;
#X obj 1242 1487 *~ 0.8;
#X obj 930 1482 *~ 0.6;
#X obj 827 1486 *~ 0.4;
#X msg 2027 533 1 25 \, 0 50 75;
#X obj 1231 1372 osc~;
#X obj 1329 1373 osc~;
#X obj 1044 1518 *~ 0.2, f 11;
#X obj 526 1031 *~;
#X obj 517 1076 dac~;
#X obj 590 999 vline~;
#X obj 589 907 bng 15 250 50 0 empty empty empty 17 7 0 10 #fcfcfc
#000000 #000000;
#X obj 583 869 r oscwall;
#X msg 590 947 1 25 \, 0 1000 75;
#X obj 414 985 phasor~ 400;
#X text 995 825 BGM \, tempo increase as more cubes are collected.
;
#X text 1825 208 Ball Rolling Sound \, play when player move the ball
;
#N canvas 0 50 450 250 (subpatch) 0;
#X array Rolling 150 float 1;
#A 0 0 0 0 0 0 0 0 0 0 0 0 0 0 0 0 0 0 0 0 0 0 0 0 0 0 0 0 0 0 0 0
0 0 0 0 0 0 0 0 0 0 0 0 0 0 0 0 0 0 0 0 0 0 0 0 0 0 0 0 0 0 0 0 0 0
0 0 0 0 0 0 0 0 0 0 0 0 0 0 0 0 0 0 0 0 0 0 0 0 0 0 0 0 0 0 0 0 0 0
0 0 0 0 0 0 0 0 0 0 0 0 0 0 0 0 0 0 0 0 0 0 0 0 0 0 0 0 0 0 0 0 0 0
0 0 0 0 0 0 0 0 0 0 0 0 0 0 0 0 0;
#X coords 0 1 149 -1 200 140 1 0 0;
#X restore 2225 532 graph;
#X obj 2122 711 bng 15 250 50 0 empty empty empty 17 7 0 10 #fcfcfc
#000000 #000000;
#X obj 2122 650 tgl 15 0 empty empty empty 17 7 0 10 #fcfcfc #000000
#000000 0 1;
#X obj 2123 742 tabwrite~ Rolling;
#X obj 2124 679 metro 100;
#N canvas 0 50 450 250 (subpatch) 0;
#X array BGM 100 float 1;
#A 0 0.0208114 0.0312541 0.0409505 0.0497848 0.0576529 0.0644607 0.0701256
0.0745819 0.0777755 0.0796668 0.0802312 0.0794597 0.0773578 0.0739466
0.0692637 0.0633551 0.0562896 0.0481455 0.0390138 0.0289972 0.0182087
0.00677063 -0.00518677 -0.0175268 -0.0301083 -0.042785 -0.0554093 -0.0678347
-0.0799157 -0.0915099 -0.102479 -0.112692 -0.122025 -0.130362 -0.137598
-0.143642 -0.148415 -0.15185 -0.153898 -0.154522 -0.153701 -0.151434
-0.147729 -0.142616 -0.136143 -0.128371 -0.119374 -0.109246 -0.0980905
-0.0860251 -0.0731799 -0.0596945 -0.0457161 -0.0314023 -0.016915 -0.00242065
0.0119122 0.0259143 0.0394173 0.0522561 0.06427 0.0753041 0.0852131
0.0938598 0.101121 0.106886 0.111057 0.113552 0.114306 0.113271 0.110416
0.105732 0.0992271 0.0909288 0.0808847 0.0691612 0.0558435 0.041035
0.0248563 0.00744235 -0.0110514 -0.0304579 -0.0505974 -0.071279 -0.0923028
-0.113461 -0.134539 -0.15532 -0.175584 -0.195113 -0.213691 -0.231105
-0.247152 -0.261634 -0.274365 -0.285173 -0.293898 -0.300395 -0.30454
-0.306224;
#X coords 0 1 99 -1 200 140 1;
#X restore 1502 1388 graph;
#X obj 622 349 select 0 1 2 3 4 5 6 7 8;
#X floatatom 734 637 5 0 0 0 - - - 0;
#X obj 743 750 dac~;
#X obj 733 606 mtof;
#X obj 803 688 vline~;
#X msg 617 420 0;
#X msg 656 420 2;
#X text 572 212 Tirgger when picking up rotating cube...;
#X msg 697 420 5;
#X msg 739 420 7;
#X msg 776 421 9;
#X msg 817 421 11;
#X msg 859 421 12;
#X msg 893 421 14;
#X obj 737 672 osc~;
#X obj 749 707 *~;
#X obj 414 549 phasor~;
#X obj 522 549 phasor~;
#X obj 496 641 -~ 1;
#X obj 496 611 +~;
#X obj 488 747 dac~;
#X obj 523 502 * -1;
#X obj 586 693 vline~;
#X msg 582 640 0.5 40 \, 0 20 100;
#X msg 575 535 0.5;
#X msg 477 547 0;
#X obj 634 489 + 85;
#X obj 497 712 *~;
#X msg 805 603 0.7 40 \, 0 10 200;
#X obj 496 678 *~ 0.2;
#X floatatom 616 292 5 0 0 0 - - - 0;
#X obj 618 258 r osctrig;
#X obj 1432 1510 bng 15 250 50 0 empty empty empty 17 7 0 10 #fcfcfc
#000000 #000000;
#X obj 1432 1468 tgl 15 0 empty empty empty 17 7 0 10 #fcfcfc #000000
#000000 0 1;
#X obj 1432 1488 metro 100;
#X obj 1433 1537 tabwrite~ BGM;
#N canvas 0 50 450 250 (subpatch) 0;
#X array pickingUp1 100 float 1;
#A 0 0 0 0 0 0 0 0 0 0 0 0 0 0 0 0 0 0 0 0 0 0 0 0 0 0 0 0 0 0 0 0
0 0 0 0 0 0 0 0 0 0 0 0 0 0 0 0 0 0 0 0 0 0 0 0 0 0 0 0 0 0 0 0 0 0
0 0 0 0 0 0 0 0 0 0 0 0 0 0 0 0 0 0 0 0 0 0 0 0 0 0 0 0 0 0 0 0 0 0
0;
#X coords 0 1 99 -1 200 140 1 0 0;
#X restore 255 602 graph;
#X obj 181 723 bng 15 250 50 0 empty empty empty 17 7 0 10 #fcfcfc
#000000 #000000;
#X obj 181 681 tgl 15 0 empty empty empty 17 7 0 10 #fcfcfc #000000
#000000 0 1;
#X obj 181 701 metro 100;
#X obj 182 750 tabwrite~ pickingUp1;
#N canvas 0 50 450 250 (subpatch) 0;
#X array pickingUp2 100 float 1;
#A 0 0 0 0 0 0 0 0 0 0 0 0 0 0 0 0 0 0 0 0 0 0 0 0 0 0 0 0 0 0 0 0
0 0 0 0 0 0 0 0 0 0 0 0 0 0 0 0 0 0 0 0 0 0 0 0 0 0 0 0 0 0 0 0 0 0
0 0 0 0 0 0 0 0 0 0 0 0 0 0 0 0 0 0 0 0 0 0 0 0 0 0 0 0 0 0 0 0 0 0
0;
#X coords 0 1 99 -1 200 140 1 0 0;
#X restore 981 591 graph;
#X obj 907 712 bng 15 250 50 0 empty empty empty 17 7 0 10 #fcfcfc
#000000 #000000;
#X obj 907 670 tgl 15 0 empty empty empty 17 7 0 10 #fcfcfc #000000
#000000 0 1;
#X obj 907 690 metro 100;
#X obj 908 739 tabwrite~ pickingUp2;
#X connect 6 0 10 0;
#X connect 8 0 9 0;
#X connect 10 0 13 0;
#X connect 11 0 10 0;
#X connect 14 0 15 0;
#X connect 14 0 15 1;
#X connect 16 0 30 0;
#X connect 17 0 16 0;
#X connect 18 0 21 0;
#X connect 18 0 46 0;
#X connect 19 0 18 0;
#X connect 20 0 18 1;
#X connect 21 0 22 0;
#X connect 21 0 27 0;
#X connect 22 0 21 1;
#X connect 23 0 28 0;
#X connect 23 1 43 0;
#X connect 23 2 44 0;
#X connect 23 3 45 0;
#X connect 24 0 14 1;
#X connect 25 0 17 1;
#X connect 26 0 47 0;
#X connect 27 0 23 0;
#X connect 28 0 17 0;
#X connect 29 0 33 0;
#X connect 30 0 29 0;
#X connect 30 0 32 0;
#X connect 31 0 33 1;
#X connect 32 0 31 0;
#X connect 33 0 34 0;
#X connect 34 0 14 0;
#X connect 35 0 29 1;
#X connect 36 0 31 1;
#X connect 37 0 35 0;
#X connect 37 0 36 0;
#X connect 38 0 37 0;
#X connect 39 0 69 0;
#X connect 40 0 41 0;
#X connect 41 0 20 0;
#X connect 42 0 77 0;
#X connect 42 0 68 0;
#X connect 43 0 17 0;
#X connect 44 0 17 0;
#X connect 45 0 17 0;
#X connect 46 0 24 0;
#X connect 47 0 25 0;
#X connect 50 0 51 0;
#X connect 50 0 51 1;
#X connect 50 0 116 0;
#X connect 52 0 50 1;
#X connect 53 0 54 0;
#X connect 53 0 55 0;
#X connect 54 0 53 1;
#X connect 55 0 56 0;
#X connect 56 0 57 0;
#X connect 56 1 62 0;
#X connect 57 0 60 0;
#X connect 58 0 59 0;
#X connect 59 0 50 0;
#X connect 60 0 58 0;
#X connect 61 0 53 0;
#X connect 61 0 100 0;
#X connect 62 0 60 0;
#X connect 63 0 64 0;
#X connect 64 0 61 0;
#X connect 65 0 82 0;
#X connect 65 0 87 0;
#X connect 65 0 88 0;
#X connect 65 0 89 0;
#X connect 66 0 65 0;
#X connect 67 0 70 0;
#X connect 68 0 67 0;
#X connect 69 0 67 1;
#X connect 70 0 71 0;
#X connect 70 0 74 0;
#X connect 71 0 70 1;
#X connect 72 0 66 1;
#X connect 73 0 78 0;
#X connect 74 0 95 0;
#X connect 75 0 66 0;
#X connect 76 0 77 0;
#X connect 77 0 69 0;
#X connect 78 0 72 0;
#X connect 79 0 66 0;
#X connect 80 0 81 0;
#X connect 81 0 99 0;
#X connect 82 0 80 0;
#X connect 82 0 92 0;
#X connect 83 0 84 0;
#X connect 84 0 98 0;
#X connect 85 0 101 0;
#X connect 86 0 102 0;
#X connect 87 0 83 0;
#X connect 87 0 92 0;
#X connect 88 0 85 0;
#X connect 88 0 92 0;
#X connect 89 0 86 0;
#X connect 89 0 92 0;
#X connect 91 0 96 1;
#X connect 91 0 97 1;
#X connect 91 0 98 1;
#X connect 91 0 99 1;
#X connect 92 0 91 0;
#X connect 93 0 66 0;
#X connect 94 0 66 0;
#X connect 95 0 75 0;
#X connect 95 1 93 0;
#X connect 95 2 94 0;
#X connect 95 3 79 0;
#X connect 96 0 103 0;
#X connect 97 0 103 0;
#X connect 98 0 103 0;
#X connect 99 0 103 0;
#X connect 100 0 52 0;
#X connect 101 0 97 0;
#X connect 102 0 96 0;
#X connect 103 0 90 1;
#X connect 103 0 90 0;
#X connect 103 0 154 0;
#X connect 104 0 105 0;
#X connect 104 0 105 1;
#X connect 106 0 104 1;
#X connect 107 0 109 0;
#X connect 108 0 107 0;
#X connect 109 0 106 0;
#X connect 110 0 104 0;
#X connect 114 0 116 0;
#X connect 115 0 117 0;
#X connect 117 0 114 0;
#X connect 119 0 124 0;
#X connect 119 1 125 0;
#X connect 119 2 127 0;
#X connect 119 3 128 0;
#X connect 119 4 129 0;
#X connect 119 5 130 0;
#X connect 119 6 131 0;
#X connect 119 7 132 0;
#X connect 119 8 124 0;
#X connect 120 0 133 0;
#X connect 122 0 120 0;
#X connect 123 0 134 1;
#X connect 124 0 145 0;
#X connect 125 0 145 0;
#X connect 127 0 145 0;
#X connect 128 0 145 0;
#X connect 129 0 145 0;
#X connect 130 0 145 0;
#X connect 131 0 145 0;
#X connect 132 0 145 0;
#X connect 133 0 134 0;
#X connect 134 0 121 0;
#X connect 134 0 121 1;
#X connect 134 0 164 0;
#X connect 135 0 138 0;
#X connect 136 0 138 1;
#X connect 137 0 148 0;
#X connect 138 0 137 0;
#X connect 140 0 136 0;
#X connect 141 0 146 1;
#X connect 142 0 141 0;
#X connect 143 0 136 1;
#X connect 144 0 135 1;
#X connect 145 0 122 0;
#X connect 145 0 147 0;
#X connect 145 0 140 0;
#X connect 145 0 135 0;
#X connect 145 0 142 0;
#X connect 146 0 139 0;
#X connect 146 0 139 1;
#X connect 146 0 159 0;
#X connect 147 0 123 0;
#X connect 148 0 146 0;
#X connect 149 0 119 0;
#X connect 150 0 149 0;
#X connect 151 0 154 0;
#X connect 152 0 153 0;
#X connect 153 0 151 0;
#X connect 156 0 159 0;
#X connect 157 0 158 0;
#X connect 158 0 156 0;
#X connect 161 0 164 0;
#X connect 162 0 163 0;
#X connect 163 0 161 0;
